# xmcd CD database file
#
# Track frame offsets:
#	150
#	13212
#	33262
#	46850
#	62262
#	82987
#	92712
#	107262
#	121887
#	134650
#	146100
#	164387
#	176875
#	188575
#
# Disc length: 2599 seconds
#
# Revision: 0
# Processed by: cddbd v1.5.1PL2 Copyright (c) Steve Scherf et al.
# Submitted via: CDex 1.70beta1
#
DISCID=b30a250e
DTITLE=Ivan Zar - Track Me Down
DYEAR=1900
DGENRE=Blues
TTITLE0=Bring Me A Pillow
TTITLE1=Sail On
TTITLE2=Take A Walk
TTITLE3=Junco Partner
TTITLE4=Rolling Stone Blues
TTITLE5=Kimberley Sunset
TTITLE6=Howlin' For My Darlin'
TTITLE7=Can't Be Satisfied
TTITLE8='79 Blues
TTITLE9=Police Dog Blues
TTITLE10=Rollin' And Tumblin'
TTITLE11=Track Me Down (Song For Keef)
TTITLE12=Lonesome Cell
TTITLE13=Kentucky Trail
EXTD=
EXTT0=
EXTT1=
EXTT2=
EXTT3=
EXTT4=
EXTT5=
EXTT6=
EXTT7=
EXTT8=
EXTT9=
EXTT10=
EXTT11=
EXTT12=
EXTT13=
PLAYORDER=
